#!OML:ASF I:\Actors\actors\Patient Classification 1\Patient 1\Session 1\Subject1.ASF
:FULLY-SPECIFIED
:DEGREES
985
root 0.588699 17.5039 9.45527 10.7442 0.848113 -8.13884
lowerback -1.60964 3.35892 5.12785
upperback -7.7486 4.75917 1.80333
thorax -6.94702 2.11541 -1.16773
lowerneck -12.0808 -11.5223 -9.51037
upperneck 25.0161 -17.2266 10.4228
head 11.9829 -7.57494 2.8084
rclavicle -2.52208e-015 4.96962e-015
rhumerus 5.42014 -7.54773 -69.4253
rradius 55.9388
rwrist 9.2189
rhand -18.1459 -28.6672
rfingers 7.12502
rthumb 8.12952 -418.491
lclavicle -2.52208e-015 4.96962e-015
lhumerus -58.0906 51.8937 39.9318
lradius 26.874
lwrist -11.834
lhand -32.1689 -31.1351
lfingers 7.12502
lthumb -5.41182 -1.22421
rfemur -3.20189 26.8595 24.9894
rtibia 0.581617
rfoot -14.0112 -30.0163
rtoes 10.475
lfemur 5.06773 -51.0291 -12.8942
ltibia -4.81778
lfoot -28.8983 56.8246
ltoes 16.0469
986
root 0.589123 17.5038 9.45448 10.7336 0.855994 -8.14713
lowerback -1.61025 3.33925 5.12718
upperback -7.75475 4.73068 1.76454
thorax -6.95137 2.09964 -1.20692
lowerneck -12.1395 -11.506 -9.38594
upperneck 25.143 -17.2352 10.3864
head 12.0288 -7.56506 2.77188
rclavicle -1.33683e-014 2.96189e-014
rhumerus 5.1055 -7.04014 -69.2354
rradius 57.1517
rwrist 8.98484
rhand -18.2823 -29.2008
rfingers 7.12502
rthumb 7.99792 -419.03
lclavicle -1.33683e-014 2.96189e-014
lhumerus -57.9513 51.8918 40.0593
lradius 26.9255
lwrist -11.823
lhand -31.9466 -31.3932
lfingers 7.12502
lthumb -5.19719 -1.47697
rfemur -3.21659 26.7443 24.9873
rtibia 0.60682
rfoot -13.9939 -29.9054
rtoes 10.4022
lfemur 5.14954 -51.2499 -12.9664
ltibia -4.8038
lfoot -29.183 56.999
ltoes 16.1117
987
root 0.588829 17.5037 9.45381 10.738 0.85633 -8.15125
lowerback -1.63692 3.33224 5.10176
upperback -7.74306 4.7167 1.74299
thorax -6.92378 2.09442 -1.21282
lowerneck -12.1492 -11.5065 -9.37073
upperneck 25.1158 -17.2593 10.4653
head 12.0304 -7.56598 2.79335
rclavicle 2.90474e-014 -1.59028e-014
rhumerus 4.6929 -6.53086 -69.0148
rradius 58.66
rwrist 8.8007
rhand -18.418 -29.9456
rfingers 7.12502
rthumb 7.8669 -419.779
lclavicle 2.90474e-014 -1.59028e-014
lhumerus -57.9324 51.9364 40.0691
lradius 26.9629
lwrist -12.3951
lhand -31.7027 -31.7733
lfingers 7.12502
lthumb -4.96171 -1.85144
rfemur -3.23672 26.655 24.9776
rtibia 0.605403
rfoot -13.906 -29.846
rtoes 10.1687
lfemur 5.21888 -51.4905 -13.0332
ltibia -4.78342
lfoot -29.6218 57.1557
ltoes 16.3721
988
root 0.587447 17.5031 9.4539 10.74 0.884885 -8.18026
lowerback -1.66892 3.32212 5.08387
upperback -7.71698 4.69899 1.74472
thorax -6.87928 2.08839 -1.19774
lowerneck -12.1666 -11.5118 -9.35927
upperneck 24.9989 -17.2598 10.4941
head 11.9902 -7.56503 2.80075
rclavicle 3.81418e-015 9.93923e-015
rhumerus 4.18592 -6.01313 -68.8094
rradius 60.5538
rwrist 8.44298
rhand -18.504 -30.6423
rfingers 7.12502
rthumb 7.78388 -420.479
lclavicle 3.81418e-015 9.93923e-015
lhumerus -58.0595 52.0692 39.8505
lradius 26.8842
lwrist -13.5101
lhand -31.3914 -32.5421
lfingers 7.12502
lthumb -4.66107 -2.61339
rfemur -3.21958 26.6596 25.0211
rtibia 0.564883
rfoot -13.7941 -29.9044
rtoes 9.88207
lfemur 5.30065 -51.7189 -13.0581
ltibia -4.80428
lfoot -30.0008 57.2981
ltoes 16.6532
989
root 0.58577 17.5025 9.45519 10.7254 0.964285 -8.25409
lowerback -1.69464 3.28907 5.11481
upperback -7.69709 4.65364 1.76635
thorax -6.84511 2.06593 -1.18849
lowerneck -12.1438 -11.4947 -9.2032
upperneck 24.8442 -17.1989 10.3291
head 11.8835 -7.5491 2.72968
rclavicle 2.12451e-014 3.51849e-014
rhumerus 3.12922 -5.60676 -68.7927
rradius 63.3227
rwrist 8.0165
rhand -18.3418 -31.1373
rfingers 7.12502
rthumb 7.94048 -420.968
lclavicle 2.12451e-014 3.51849e-014
lhumerus -57.5879 51.8376 40.4632
lradius 26.9292
lwrist -13.2166
lhand -31.2614 -32.5357
lfingers 7.12502
lthumb -4.53551 -2.60422
rfemur -3.1645 26.6707 25.1412
rtibia 0.526672
rfoot -13.8006 -29.9564
rtoes 9.71923
lfemur 5.4195 -52.0254 -13.0582
ltibia -4.82209
lfoot -30.2581 57.4908
ltoes 16.6935
990
root 0.584365 17.5024 9.45573 10.7359 1.06292 -8.30666
lowerback -1.72441 3.23788 5.12703
upperback -7.69867 4.58451 1.78909
thorax -6.83451 2.032 -1.16752
lowerneck -12.1252 -11.4515 -9.08901
upperneck 24.7455 -17.1196 10.2329
head 11.8099 -7.51879 2.6933
rclavicle 3.03644e-014 4.39314e-014
rhumerus 1.25731 -5.65065 -69.2058
rradius 67.2721
rwrist 7.91073
rhand -17.7203 -31.3142
rfingers 7.12502
rthumb 8.54027 -421.121
lclavicle 3.03644e-014 4.39314e-014
lhumerus -56.6396 51.3072 41.796
lradius 27.1518
lwrist -11.6444
lhand -32.1042 -30.1381
lfingers 7.12502
lthumb -5.34934 -0.225584
rfemur -3.14927 26.6131 25.2141
rtibia 0.501338
rfoot -13.8762 -29.9375
rtoes 9.89699
lfemur 5.40971 -52.1857 -12.9806
ltibia -4.82117
lfoot -30.2438 57.574
ltoes 16.6244
991
root 0.582264 17.5016 9.45478 10.7555 1.14736 -8.32683
lowerback -1.70364 3.19187 5.1034
upperback -7.71524 4.52545 1.79897
thorax -6.86995 2.00336 -1.14419
lowerneck -12.1634 -11.4038 -9.02743
upperneck 24.6869 -17.0361 10.178
head 11.7727 -7.48261 2.67713
rclavicle -1.85367e-014 1.98785e-015
rhumerus 0.0262169 -4.38299 -68.8306
rradius 70.5966
rwrist 6.48455
rhand -17.6508 -31.7343
rfingers 7.12502
rthumb 8.60738 -421.539
lclavicle -1.85367e-014 1.98785e-015
lhumerus -56.1102 51.0776 42.5293
lradius 27.2654
lwrist -10.947
lhand -33.5702 -26.7818
lfingers 7.12502
lthumb -6.76464 3.09013
rfemur -3.15641 26.6139 25.242
rtibia 0.490755
rfoot -13.9404 -29.9796
rtoes 10.1286
lfemur 5.29853 -52.1297 -12.8398
ltibia -4.84038
lfoot -30.061 57.5007
ltoes 16.5811
992
root 0.580808 17.5007 9.45418 10.7644 1.26099 -8.36196
lowerback -1.66846 3.17073 5.13443
upperback -7.71626 4.50041 1.79253
thorax -6.89014 1.98821 -1.16933
lowerneck -12.1339 -11.3606 -8.99231
upperneck 24.5027 -16.9432 10.1369
head 11.6769 -7.45006 2.67544
rclavicle -4.51987e-014 7.7526e-015
rhumerus -1.36854 -3.13936 -68.4366
rradius 74.3775
rwrist 5.30047
rhand -17.5209 -32.0599
rfingers 7.12502
rthumb 8.73266 -421.859
lclavicle -4.51987e-014 7.7526e-015
lhumerus -55.768 50.9995 42.9736
lradius 27.3246
lwrist -10.9469
lhand -34.1516 -25.2777
lfingers 7.12502
lthumb -7.3259 4.57549
rfemur -3.141 26.6882 25.2996
rtibia 0.472122
rfoot -14.0232 -30.1211
rtoes 10.2673
lfemur 5.18898 -52.0817 -12.6781
ltibia -4.86604
lfoot -29.8019 57.4175
ltoes 16.3712
993
root 0.581208 17.5005 9.45472 10.7698 1.44858 -8.40935
lowerback -1.64816 3.15362 5.22631
upperback -7.70386 4.47989 1.77565
thorax -6.88225 1.97211 -1.23758
lowerneck -12.017 -11.3282 -8.95851
upperneck 24.16 -16.8622 10.1393
head 11.5098 -7.42694 2.69251
rclavicle 3.90115e-015 -7.7526e-015
rhumerus -2.84568 -2.20934 -68.2168
rradius 78.312
rwrist 4.88893
rhand -17.1718 -32.1669
rfingers 7.12502
rthumb 9.06955 -421.952
lclavicle 3.90115e-015 -7.7526e-015
lhumerus -55.2935 50.8075 43.6121
lradius 27.4416
lwrist -10.8247
lhand -33.4276 -26.5918
lfingers 7.12502
lthumb -6.62705 3.28454
rfemur -3.09727 26.7544 25.3745
rtibia 0.39903
rfoot -14.1269 -30.3191
rtoes 10.4687
lfemur 5.02505 -52.0225 -12.4683
ltibia -4.86382
lfoot -29.3091 57.2954
ltoes 15.9692
